<svg version="1.1" id="Layer_1" xmlns="http://www.w3.org/2000/svg" xmlns:xlink="http://www.w3.org/1999/xlink" x="0px" y="0px"
	 width="100%" viewBox="0 0 2231 2231" enable-background="new 0 0 2231 2231" xml:space="preserve">
<path fill="#7985FE" opacity="1.000000" stroke="none" 
	d="
M2.000003,752.000000
	C2.000000,629.285156 2.000000,506.570343 2.551859,382.287292 
	C3.523651,378.463348 4.308805,376.207642 4.308868,373.951935 
	C4.309851,338.667542 4.209493,303.383118 4.574534,267.412537 
	C5.234710,265.419373 5.566001,264.119995 5.654469,262.804291 
	C8.095011,226.506821 17.187706,191.953552 33.094872,159.248764 
	C48.874123,126.806969 70.512749,98.832611 97.455002,74.815010 
	C144.453262,32.918518 198.457474,7.480825 262.843323,3.893217 
	C265.773315,3.976848 267.773041,3.996956 269.772766,3.996961 
	C821.713440,3.998291 1373.654175,3.998306 1925.594849,3.995906 
	C1928.260986,3.995894 1930.953857,4.180052 1933.583008,3.858787 
	C1935.108276,3.672415 1936.531128,2.647546 1938.000000,2.000002 
	C1948.048950,2.000000 1958.098022,2.000000 1969.704834,2.516503 
	C2005.911865,4.695995 2039.066895,12.821520 2070.470459,27.354376 
	C2133.585449,56.562614 2180.401123,102.518135 2210.049072,165.582718 
	C2221.726807,190.422821 2229.946533,216.332840 2232.177734,244.702560 
	C2232.725342,249.688812 2233.362793,253.844406 2234.000000,258.000000 
	C2234.000000,826.714844 2234.000000,1395.429688 2233.585693,1965.778198 
	C2232.638184,1976.031982 2232.698730,1984.737915 2231.468018,1993.257202 
	C2226.325928,2028.849365 2215.687500,2062.826660 2197.530762,2093.889160 
	C2152.100586,2171.610840 2083.802002,2215.936279 1995.361084,2230.081543 
	C1986.914551,2231.432373 1978.453979,2232.696045 1970.000000,2234.000000 
	C1404.618530,2234.000000 839.237000,2234.000000 272.227173,2233.601807 
	C255.172760,2230.833740 239.567062,2229.283447 224.352554,2225.948486 
	C166.007645,2213.158936 116.174347,2184.831543 76.360474,2140.343750 
	C33.173500,2092.086914 10.200446,2034.850586 5.194219,1969.491699 
	C4.855808,1964.019043 4.407331,1959.381470 4.403572,1954.743774 
	C4.355880,1895.889526 4.418937,1837.035156 4.270068,1778.181274 
	C4.259792,1774.119019 2.790683,1770.060303 1.999998,1766.000000 
	C2.000000,1529.951782 2.000000,1293.903687 2.660379,1056.385498 
	C3.670095,1052.302734 4.323411,1049.690063 4.324852,1047.077271 
	C4.377396,951.787720 4.391459,856.498108 4.270009,761.208679 
	C4.266095,758.138184 2.789882,755.069519 2.000003,752.000000 
M1422.916626,426.031494 
	C1442.681641,438.981842 1462.921509,451.270203 1482.103271,465.033600 
	C1512.964111,487.177216 1542.876953,510.639465 1573.649048,532.910645 
	C1609.495483,558.854370 1649.908081,570.396362 1694.071533,568.088745 
	C1731.001709,566.159119 1767.903931,563.692505 1804.817261,561.441589 
	C1856.130859,558.312622 1907.399658,558.383972 1958.556152,564.003418 
	C1986.899048,567.116943 2014.324219,573.758850 2039.889771,586.847290 
	C2066.535400,600.488770 2080.162598,621.644043 2078.185791,652.230530 
	C2074.188477,714.069641 2048.268799,766.308594 2008.061646,812.116882 
	C1996.889893,824.845215 1981.869507,830.216431 1964.805786,828.417908 
	C1957.537842,827.651855 1950.365845,826.016479 1943.124023,824.954956 
	C1909.758911,820.064087 1886.250366,826.730896 1868.276733,858.974487 
	C1867.392334,860.560913 1866.069946,861.903198 1865.099609,863.166382 
	C1854.665039,856.533325 1845.125977,849.769775 1834.962524,844.132141 
	C1795.038940,821.986938 1753.963013,819.878662 1711.986084,838.107483 
	C1695.065552,845.455322 1679.403564,854.987488 1665.171021,866.650269 
	C1602.856934,917.712219 1573.750000,983.435608 1584.872925,1063.482544 
	C1595.725220,1141.580933 1640.197998,1196.867065 1710.820923,1231.119263 
	C1727.443848,1239.181519 1745.376465,1243.217529 1763.925781,1243.903931 
	C1798.341187,1245.177490 1828.666748,1233.699463 1856.346924,1214.065552 
	C1859.267822,1211.993774 1862.203247,1209.942505 1864.704346,1208.182739 
	C1865.852051,1208.585205 1866.275391,1208.601196 1866.458618,1208.819092 
	C1867.739502,1210.342407 1869.041260,1211.856445 1870.206543,1213.467285 
	C1881.461792,1229.025146 1896.496216,1238.861206 1915.305176,1242.520142 
	C1937.787598,1246.893799 1959.754395,1244.398315 1981.075439,1236.244995 
	C1992.690308,1231.803345 1999.309814,1222.819092 2001.432617,1210.950806 
	C2003.066772,1201.814453 2004.135742,1192.444092 2004.162842,1183.173950 
	C2004.411011,1098.181030 2004.493896,1013.186890 2004.292603,928.193970 
	C2004.263672,915.994568 2008.014160,907.552124 2019.195557,901.358032 
	C2042.992676,888.175415 2063.556641,870.736389 2081.478271,850.211182 
	C2108.666992,819.072388 2127.131104,783.098877 2139.901367,744.084473 
	C2151.345947,709.119202 2160.338379,673.674072 2158.213867,636.342651 
	C2156.200195,600.958862 2143.617188,570.261108 2118.225830,545.194763 
	C2100.125244,527.325867 2078.519287,514.993408 2054.931641,506.003815 
	C2012.783203,489.940521 1968.764160,482.875641 1924.018066,480.428711 
	C1878.038208,477.914246 1832.078613,480.258728 1786.150024,483.052216 
	C1754.888184,484.953552 1723.603516,486.569550 1692.308960,487.803253 
	C1673.847412,488.531036 1657.681763,482.043182 1643.955566,469.652710 
	C1639.255615,465.410156 1634.675415,461.034973 1630.035278,456.725983 
	C1582.101807,412.213409 1529.500000,374.203186 1470.301758,346.230896 
	C1427.251343,325.888702 1383.474487,306.991791 1339.476685,288.765900 
	C1247.355835,250.605347 1151.406738,227.800583 1051.929443,220.449173 
	C1006.690857,217.106033 961.391785,216.910782 916.063354,219.570435 
	C881.991699,221.569565 848.447144,226.461517 815.735229,236.166580 
	C769.283020,249.948135 725.816711,269.705963 689.290405,302.432098 
	C676.885376,313.546478 664.941528,325.188232 653.020447,336.828156 
	C563.297302,424.435211 454.281586,469.880371 331.026215,483.971130 
	C308.206512,486.579926 285.206512,487.572815 262.343109,489.847809 
	C229.102661,493.155396 202.482956,507.929657 182.366730,535.181030 
	C147.407288,582.540527 125.643669,635.107422 116.472816,693.177185 
	C108.475693,743.814941 115.369324,792.013123 138.040649,838.031189 
	C149.865143,862.032471 164.017868,884.576599 179.646393,906.223755 
	C189.742844,920.208313 194.675400,935.584839 194.601395,952.932434 
	C194.319870,1018.926697 194.339951,1084.922363 194.289673,1150.917480 
	C194.130219,1360.238281 193.963989,1569.559204 193.937439,1778.880005 
	C193.936386,1787.158691 194.791626,1795.531250 196.196350,1803.696899 
	C199.109390,1820.630005 208.863235,1831.953125 225.546753,1836.944946 
	C250.598801,1844.440552 275.516357,1844.039917 300.180511,1835.329590 
	C309.075684,1832.188232 316.999786,1827.331543 323.417847,1820.216309 
	C326.674896,1816.605225 330.009705,1810.560669 333.571442,1810.364014 
	C337.993774,1810.119751 342.896759,1814.476685 347.231171,1817.384521 
	C386.853699,1843.966431 429.002808,1849.446899 473.849335,1832.803345 
	C491.154816,1826.380859 507.204956,1817.472778 521.962158,1806.516968 
	C590.154541,1755.890991 623.818970,1688.746216 611.571777,1603.666748 
	C600.612610,1527.534912 557.719849,1471.737915 488.924072,1437.796143 
	C439.581970,1413.452515 390.706177,1418.445801 344.577881,1448.627686 
	C341.909485,1450.373779 339.188141,1452.038940 336.243530,1453.898193 
	C333.832306,1444.127563 333.950104,1212.884033 336.137573,1205.054199 
	C336.448761,1205.028442 336.839813,1204.867554 337.059235,1204.997070 
	C341.058655,1207.358521 345.038422,1209.753296 349.020416,1212.144287 
	C380.201050,1230.866333 413.628784,1238.217896 449.708710,1231.918091 
	C473.465210,1227.770020 494.606964,1217.609741 514.309814,1203.964600 
	C594.058044,1148.735596 627.049561,1052.987427 595.578613,963.818542 
	C576.277832,909.132141 541.172668,867.129944 488.367859,841.511047 
	C461.421265,828.437622 432.885956,823.118225 402.850830,827.830627 
	C378.548523,831.643677 356.960876,841.478027 337.848877,856.713623 
	C333.152039,860.457947 329.052673,861.551086 323.422791,859.154968 
	C315.463745,855.767517 307.212036,853.064941 299.072845,850.104126 
	C275.950195,841.692871 258.787933,826.412964 249.146774,803.889526 
	C239.854874,782.182007 231.666367,759.977783 223.679565,737.745117 
	C218.877975,724.379089 217.862991,710.071838 220.476303,696.249084 
	C225.850876,667.820984 235.390900,640.672424 254.119934,618.106506 
	C285.565979,580.218262 327.025726,559.575012 375.088226,552.097900 
	C402.381927,547.851868 430.072571,546.134888 457.345245,541.780640 
	C517.986877,532.099121 574.405518,510.903198 625.983704,477.241089 
	C658.812012,455.815979 688.019470,430.146606 715.567383,402.374451 
	C743.554443,374.159546 775.298218,350.852173 812.634033,336.801636 
	C865.958191,316.734222 921.351440,305.286102 978.310974,302.235718 
	C1017.082275,300.159393 1055.510620,303.597687 1093.698853,310.528046 
	C1209.088501,331.468872 1317.975098,370.895905 1422.916626,426.031494 
M2087.698242,1733.000000 
	C2087.698242,1662.690674 2087.955566,1592.379639 2087.531982,1522.072876 
	C2087.413818,1502.474487 2085.454102,1482.875732 2084.025879,1463.300049 
	C2082.538086,1442.903931 2071.133057,1430.334229 2051.977539,1424.465332 
	C2016.904663,1413.719849 1969.564697,1428.371216 1949.948242,1455.979370 
	C1948.633179,1457.830078 1947.859863,1460.065796 1946.834595,1462.122437 
	C1940.204102,1456.712036 1935.921631,1453.021973 1931.434814,1449.599731 
	C1896.766724,1423.156616 1858.261719,1414.852783 1816.430176,1427.604004 
	C1759.593506,1444.929199 1716.372437,1480.180908 1688.259399,1532.362793 
	C1653.600464,1596.694702 1655.581543,1662.251709 1686.967651,1727.224731 
	C1712.916382,1780.941650 1754.115112,1817.717773 1811.828247,1834.739258 
	C1860.087036,1848.972168 1904.035034,1840.833496 1942.920654,1808.192261 
	C1944.352661,1806.990112 1945.997925,1806.042236 1947.960693,1804.688354 
	C1950.756592,1809.616333 1953.038086,1814.006226 1955.658203,1818.183838 
	C1962.391968,1828.920898 1971.845581,1836.368896 1984.599243,1837.353271 
	C2002.835449,1838.760742 2021.162109,1839.305908 2039.456909,1839.471191 
	C2045.649780,1839.527222 2051.989990,1837.758423 2058.039307,1836.037476 
	C2068.956787,1832.931763 2076.983154,1825.947021 2080.571533,1815.133423 
	C2083.169678,1807.303833 2085.425293,1799.074097 2085.951660,1790.901733 
	C2087.149170,1772.307495 2087.188232,1753.638550 2087.698242,1733.000000 
M989.115051,829.765625 
	C986.681152,830.844543 984.182678,831.799194 981.824829,833.024536 
	C973.087036,837.565796 965.941528,843.835022 960.568054,852.197021 
	C953.228638,863.618225 952.699280,863.598877 941.695679,854.949646 
	C939.077942,852.892090 936.420776,850.876587 933.693298,848.968140 
	C907.294800,830.497864 878.274109,822.101196 845.962585,825.757751 
	C823.365784,828.314880 802.521362,836.008606 783.182251,847.502747 
	C703.593445,894.806091 663.138611,964.421936 672.839050,1057.218994 
	C681.313904,1138.291504 726.904907,1195.987183 800.063538,1231.327515 
	C821.338623,1241.604736 844.490173,1245.176758 868.232544,1243.106079 
	C897.170837,1240.582031 923.069641,1229.937012 946.727600,1213.406250 
	C949.406189,1211.534668 952.133179,1209.732178 954.578064,1208.073730 
	C955.455872,1208.536743 955.877014,1208.615601 956.024780,1208.859863 
	C957.047607,1210.550293 958.157104,1212.209473 958.975342,1213.999268 
	C966.242493,1229.896118 979.074402,1238.365479 995.800354,1241.551025 
	C999.717590,1242.296997 1003.714417,1242.762329 1007.696106,1243.009155 
	C1026.001953,1244.143677 1044.319702,1245.019653 1062.289917,1240.072266 
	C1076.680420,1236.110474 1086.244873,1226.868774 1089.658936,1212.406372 
	C1091.861694,1203.074707 1093.502930,1193.355103 1093.529663,1183.804199 
	C1093.807495,1084.534546 1093.824463,985.263611 1093.526245,885.994141 
	C1093.496704,876.128845 1091.742798,866.057800 1089.297974,856.462219 
	C1085.971069,843.406006 1077.510254,834.146606 1064.258057,830.206177 
	C1039.824097,822.940857 1015.256836,820.922791 989.115051,829.765625 
M1011.925537,1839.201660 
	C1028.881958,1838.769287 1045.971436,1839.512207 1062.761963,1837.612671 
	C1084.696045,1835.131714 1096.897583,1820.526855 1098.171021,1798.485107 
	C1098.247681,1797.155029 1098.268311,1795.821045 1098.284668,1794.488525 
	C1098.591797,1769.505493 1099.173218,1744.522217 1099.146362,1719.539429 
	C1099.057861,1637.573364 1098.749390,1555.607422 1098.515869,1473.641479 
	C1098.509155,1471.310181 1098.443237,1468.976562 1098.320312,1466.648438 
	C1097.257568,1446.520264 1086.528687,1432.341187 1067.514160,1425.427368 
	C1054.938599,1420.854858 1041.924927,1420.520752 1029.013428,1422.098877 
	C1001.986938,1425.402100 978.041443,1434.971680 961.767517,1458.461060 
	C961.251282,1459.206177 960.233704,1459.604004 959.020386,1460.470337 
	C955.849243,1458.110474 952.709778,1455.730469 949.526001,1453.411377 
	C901.857666,1418.688965 851.076172,1413.117310 797.921387,1438.872437 
	C673.880859,1498.974121 638.452576,1658.373535 725.004211,1765.672485 
	C757.162048,1805.539185 797.088806,1832.782837 849.067017,1838.894775 
	C888.506714,1843.532349 924.560181,1834.882080 955.481812,1808.760254 
	C957.221558,1807.290405 959.084167,1805.966064 960.822021,1804.626099 
	C961.396179,1805.123535 961.740479,1805.293213 961.884583,1805.567871 
	C962.651428,1807.030640 963.482788,1808.474854 964.084717,1810.006836 
	C970.734131,1826.929932 983.729248,1835.430542 1001.184082,1838.009033 
	C1004.149292,1838.447021 1007.138184,1838.724609 1011.925537,1839.201660 
M1319.045898,1801.092529 
	C1310.464111,1819.869507 1301.591309,1838.520142 1293.366699,1857.452271 
	C1280.229248,1887.693359 1267.117310,1917.957642 1254.761719,1948.522217 
	C1244.813843,1973.130005 1249.761597,1988.774414 1271.437988,2003.885742 
	C1289.110229,2016.205811 1308.617676,2024.650391 1329.813354,2028.885010 
	C1347.654053,2032.449341 1362.275635,2026.884644 1372.504150,2011.920044 
	C1377.913818,2004.005493 1382.357788,1995.301514 1386.298950,1986.531982 
	C1457.847656,1827.336060 1529.260986,1668.079346 1600.656128,1508.814453 
	C1603.104248,1503.353394 1605.398438,1497.779175 1607.191528,1492.077515 
	C1611.744385,1477.599731 1609.081665,1464.713745 1598.908081,1453.060913 
	C1576.257446,1427.116699 1547.044800,1416.679932 1513.571045,1416.495850 
	C1501.876709,1416.431396 1492.192749,1421.892822 1485.719604,1431.669556 
	C1481.149170,1438.572021 1477.166870,1445.965210 1473.750244,1453.514038 
	C1448.479736,1509.348633 1423.422241,1565.279785 1398.273804,1621.169556 
	C1396.955811,1624.098389 1395.417358,1626.927856 1393.364868,1631.038696 
	C1390.734131,1626.977173 1388.859009,1624.283325 1387.185791,1621.469360 
	C1352.452637,1563.056763 1317.762329,1504.618774 1282.996338,1446.225708 
	C1279.593262,1440.509888 1276.010986,1434.863647 1272.060059,1429.519043 
	C1264.409424,1419.169556 1253.984863,1414.238770 1241.048462,1414.293579 
	C1226.757446,1414.354126 1213.321777,1417.638184 1200.762573,1424.376221 
	C1184.681763,1433.003540 1171.323364,1444.974731 1159.619507,1458.814453 
	C1151.684937,1468.196899 1149.690796,1479.171509 1153.455200,1490.704834 
	C1155.812622,1497.927612 1158.932983,1505.045776 1162.720093,1511.630737 
	C1174.842651,1532.709717 1187.393799,1553.543335 1199.855225,1574.426514 
	C1236.898682,1636.504272 1273.902100,1698.606079 1311.109009,1760.585815 
	C1318.400024,1772.731079 1323.004761,1785.142334 1319.045898,1801.092529 
M1463.879150,945.362427 
	C1482.746826,929.064270 1493.851562,908.104553 1499.272461,884.190063 
	C1502.078247,871.812378 1497.478760,861.105530 1487.445435,853.225830 
	C1483.548706,850.165466 1479.203979,847.504761 1474.718994,845.393433 
	C1455.073853,836.145996 1434.709595,828.855164 1413.523438,823.984253 
	C1376.634521,815.503235 1339.376587,816.376892 1302.197754,820.807495 
	C1278.566895,823.623596 1255.922485,830.646667 1235.264404,842.931763 
	C1207.229614,859.603577 1189.531006,883.728882 1185.798462,916.403809 
	C1183.880615,933.192017 1183.316162,950.388611 1184.533569,967.227661 
	C1186.980225,1001.069031 1199.860718,1030.481445 1226.436768,1052.802246 
	C1241.918579,1065.805176 1259.617065,1074.991211 1278.332886,1082.341064 
	C1305.779907,1093.119629 1334.553345,1098.692993 1363.377930,1104.130127 
	C1369.212036,1105.230713 1375.280640,1106.552856 1380.477783,1109.245972 
	C1390.084351,1114.223755 1390.289062,1127.151123 1381.185059,1133.061279 
	C1378.470093,1134.823608 1375.138428,1135.884644 1371.940552,1136.612305 
	C1355.815430,1140.280518 1339.668335,1140.790405 1323.419189,1136.977783 
	C1305.052856,1132.667969 1288.493408,1124.183838 1271.735718,1115.923218 
	C1260.445801,1110.357910 1248.730835,1105.403198 1236.769653,1101.519531 
	C1223.946533,1097.355957 1212.030518,1101.124023 1202.960205,1110.859009 
	C1187.286011,1127.682007 1176.345581,1147.454956 1170.030273,1169.574951 
	C1166.039185,1183.553711 1170.625488,1195.318481 1181.604614,1204.366577 
	C1186.969116,1208.787598 1192.924927,1212.614990 1198.990723,1216.042969 
	C1280.033569,1261.845093 1364.127563,1262.967529 1449.666138,1231.362061 
	C1483.824341,1218.741211 1504.779785,1192.775879 1513.915771,1157.410767 
	C1519.332764,1136.442017 1519.494263,1115.101440 1517.592529,1093.833252 
	C1513.560059,1048.735596 1491.060547,1016.419067 1448.922729,998.707275 
	C1425.214722,988.742065 1400.861938,980.854797 1375.205200,977.460205 
	C1363.994751,975.976929 1352.786377,974.255249 1341.724243,971.939148 
	C1331.813843,969.864197 1322.824341,965.213623 1315.232178,958.505676 
	C1306.078003,950.417847 1308.183105,937.361938 1319.281494,932.277283 
	C1322.250854,930.916687 1325.612671,930.208984 1328.872192,929.717346 
	C1359.323242,925.124512 1388.591553,929.665283 1416.928589,941.303284 
	C1423.084717,943.831543 1429.228516,946.463135 1435.560303,948.472839 
	C1444.779419,951.399170 1453.947388,951.345520 1463.879150,945.362427 
M1007.841736,751.242065 
	C1045.210449,760.570923 1082.926270,761.393250 1120.898560,755.836182 
	C1172.067993,748.347778 1218.591309,729.825562 1258.787964,696.851990 
	C1308.515869,656.059937 1340.174316,603.230408 1359.526978,542.615540 
	C1362.410156,533.584839 1363.563354,523.628540 1363.497803,514.114319 
	C1363.390747,498.617065 1355.910278,486.865906 1341.638672,479.847321 
	C1320.595703,469.498718 1302.840576,473.481873 1288.795776,492.256348 
	C1285.030396,497.289673 1281.837402,502.848938 1279.065186,508.502045 
	C1275.847046,515.064453 1273.282104,521.956909 1270.606567,528.773987 
	C1256.545898,564.601196 1237.151978,596.934265 1208.273560,622.887329 
	C1175.621704,652.231689 1137.372192,668.207703 1093.386597,670.353088 
	C1057.730591,672.092163 1023.903564,664.703491 991.275391,650.759766 
	C986.090759,648.544067 980.778198,646.385254 975.312317,645.113770 
	C956.044556,640.631592 936.201172,649.190125 927.236267,665.433289 
	C917.402405,683.250977 920.203003,704.455261 934.959412,718.695068 
	C939.673462,723.244080 945.398438,727.010254 951.207581,730.109985 
	C968.615234,739.398682 987.075623,746.080322 1007.841736,751.242065 
M1052.552612,515.948730 
	C1052.456421,514.956238 1052.383545,513.960876 1052.260498,512.971741 
	C1049.288574,489.082184 1028.835449,472.599030 1005.580383,474.734070 
	C981.252136,476.967682 962.531921,499.060486 964.047791,522.531067 
	C965.514771,545.244080 986.549561,564.208801 1009.834656,563.928772 
	C1033.506104,563.644104 1054.479126,544.003845 1052.552612,515.948730 
M1191.979614,412.807404 
	C1168.415039,394.938690 1137.018921,404.379669 1124.274170,431.317871 
	C1116.692993,447.342102 1118.942017,462.803101 1130.125610,476.170441 
	C1142.392578,490.832733 1158.811768,494.944153 1177.097168,490.560211 
	C1193.876953,486.537292 1204.330688,475.528046 1207.945557,458.738464 
	C1211.755127,441.045105 1206.876709,425.829193 1191.979614,412.807404 
z"/>
<path fill="#D2D6FE" opacity="1.000000" stroke="none" 
	d="
M262.843323,3.893217 
	C261.913055,3.820304 261.991180,2.911806 261.995605,2.455903 
	C820.049805,2.000000 1378.099609,2.000000 1937.074707,2.000002 
	C1936.531128,2.647546 1935.108276,3.672415 1933.583008,3.858787 
	C1930.953857,4.180052 1928.260986,3.995894 1925.594849,3.995906 
	C1373.654175,3.998306 821.713440,3.998291 269.772766,3.996961 
	C267.773041,3.996956 265.773315,3.976848 262.843323,3.893217 
z"/>
<path fill="#D2D6FE" opacity="1.000000" stroke="none" 
	d="
M2.000003,752.937317 
	C2.789882,755.069519 4.266095,758.138184 4.270009,761.208679 
	C4.391459,856.498108 4.377396,951.787720 4.324852,1047.077271 
	C4.323411,1049.690063 3.670095,1052.302734 2.660379,1055.457764 
	C2.000000,955.291565 2.000000,854.583069 2.000003,752.937317 
z"/>
<path fill="#D2D6FE" opacity="1.000000" stroke="none" 
	d="
M5.194220,1969.491699 
	C4.561094,1970.238892 3.831353,1970.151001 2.550806,1970.031616 
	C2.000000,1902.624878 2.000000,1835.249756 1.999998,1766.937256 
	C2.790683,1770.060303 4.259792,1774.119019 4.270068,1778.181274 
	C4.418937,1837.035156 4.355880,1895.889526 4.403572,1954.743774 
	C4.407331,1959.381470 4.855808,1964.019043 5.194220,1969.491699 
z"/>
<path fill="#D2D6FE" opacity="1.000000" stroke="none" 
	d="
M2.000000,268.937317 
	C2.356147,267.999725 2.712295,267.999481 3.600463,268.048950 
	C4.209493,303.383118 4.309851,338.667542 4.308868,373.951935 
	C4.308805,376.207642 3.523651,378.463348 2.551859,381.359528 
	C2.000000,344.624878 2.000000,307.249756 2.000000,268.937317 
z"/>
<path fill="#D2D6FE" opacity="1.000000" stroke="none" 
	d="
M2232.177734,244.702560 
	C2232.267578,243.871902 2233.137451,243.885666 2233.568848,243.942841 
	C2234.000000,248.083328 2234.000000,252.166672 2234.000000,257.125000 
	C2233.362793,253.844406 2232.725342,249.688812 2232.177734,244.702560 
z"/>
<path fill="#FDFDFE" opacity="1.000000" stroke="none" 
	d="
M1422.259644,425.704437 
	C1317.975098,370.895905 1209.088501,331.468872 1093.698853,310.528046 
	C1055.510620,303.597687 1017.082275,300.159393 978.310974,302.235718 
	C921.351440,305.286102 865.958191,316.734222 812.634033,336.801636 
	C775.298218,350.852173 743.554443,374.159546 715.567383,402.374451 
	C688.019470,430.146606 658.812012,455.815979 625.983704,477.241089 
	C574.405518,510.903198 517.986877,532.099121 457.345245,541.780640 
	C430.072571,546.134888 402.381927,547.851868 375.088226,552.097900 
	C327.025726,559.575012 285.565979,580.218262 254.119934,618.106506 
	C235.390900,640.672424 225.850876,667.820984 220.476303,696.249084 
	C217.862991,710.071838 218.877975,724.379089 223.679565,737.745117 
	C231.666367,759.977783 239.854874,782.182007 249.146774,803.889526 
	C258.787933,826.412964 275.950195,841.692871 299.072845,850.104126 
	C307.212036,853.064941 315.463745,855.767517 323.422791,859.154968 
	C329.052673,861.551086 333.152039,860.457947 337.848877,856.713623 
	C356.960876,841.478027 378.548523,831.643677 402.850830,827.830627 
	C432.885956,823.118225 461.421265,828.437622 488.367859,841.511047 
	C541.172668,867.129944 576.277832,909.132141 595.578613,963.818542 
	C627.049561,1052.987427 594.058044,1148.735596 514.309814,1203.964600 
	C494.606964,1217.609741 473.465210,1227.770020 449.708710,1231.918091 
	C413.628784,1238.217896 380.201050,1230.866333 349.020416,1212.144287 
	C345.038422,1209.753296 341.058655,1207.358521 337.059235,1204.997070 
	C336.839813,1204.867554 336.448761,1205.028442 336.137573,1205.054199 
	C333.950104,1212.884033 333.832306,1444.127563 336.243530,1453.898193 
	C339.188141,1452.038940 341.909485,1450.373779 344.577881,1448.627686 
	C390.706177,1418.445801 439.581970,1413.452515 488.924072,1437.796143 
	C557.719849,1471.737915 600.612610,1527.534912 611.571777,1603.666748 
	C623.818970,1688.746216 590.154541,1755.890991 521.962158,1806.516968 
	C507.204956,1817.472778 491.154816,1826.380859 473.849335,1832.803345 
	C429.002808,1849.446899 386.853699,1843.966431 347.231171,1817.384521 
	C342.896759,1814.476685 337.993774,1810.119751 333.571442,1810.364014 
	C330.009705,1810.560669 326.674896,1816.605225 323.417847,1820.216309 
	C316.999786,1827.331543 309.075684,1832.188232 300.180511,1835.329590 
	C275.516357,1844.039917 250.598801,1844.440552 225.546753,1836.944946 
	C208.863235,1831.953125 199.109390,1820.630005 196.196350,1803.696899 
	C194.791626,1795.531250 193.936386,1787.158691 193.937439,1778.880005 
	C193.963989,1569.559204 194.130219,1360.238281 194.289673,1150.917480 
	C194.339951,1084.922363 194.319870,1018.926697 194.601395,952.932434 
	C194.675400,935.584839 189.742844,920.208313 179.646393,906.223755 
	C164.017868,884.576599 149.865143,862.032471 138.040649,838.031189 
	C115.369324,792.013123 108.475693,743.814941 116.472816,693.177185 
	C125.643669,635.107422 147.407288,582.540527 182.366730,535.181030 
	C202.482956,507.929657 229.102661,493.155396 262.343109,489.847809 
	C285.206512,487.572815 308.206512,486.579926 331.026215,483.971130 
	C454.281586,469.880371 563.297302,424.435211 653.020447,336.828156 
	C664.941528,325.188232 676.885376,313.546478 689.290405,302.432098 
	C725.816711,269.705963 769.283020,249.948135 815.735229,236.166580 
	C848.447144,226.461517 881.991699,221.569565 916.063354,219.570435 
	C961.391785,216.910782 1006.690857,217.106033 1051.929443,220.449173 
	C1151.406738,227.800583 1247.355835,250.605347 1339.476685,288.765900 
	C1383.474487,306.991791 1427.251343,325.888702 1470.301758,346.230896 
	C1529.500000,374.203186 1582.101807,412.213409 1630.035278,456.725983 
	C1634.675415,461.034973 1639.255615,465.410156 1643.955566,469.652710 
	C1657.681763,482.043182 1673.847412,488.531036 1692.308960,487.803253 
	C1723.603516,486.569550 1754.888184,484.953552 1786.150024,483.052216 
	C1832.078613,480.258728 1878.038208,477.914246 1924.018066,480.428711 
	C1968.764160,482.875641 2012.783203,489.940521 2054.931641,506.003815 
	C2078.519287,514.993408 2100.125244,527.325867 2118.225830,545.194763 
	C2143.617188,570.261108 2156.200195,600.958862 2158.213867,636.342651 
	C2160.338379,673.674072 2151.345947,709.119202 2139.901367,744.084473 
	C2127.131104,783.098877 2108.666992,819.072388 2081.478271,850.211182 
	C2063.556641,870.736389 2042.992676,888.175415 2019.195557,901.358032 
	C2008.014160,907.552124 2004.263672,915.994568 2004.292603,928.193970 
	C2004.493896,1013.186890 2004.411011,1098.181030 2004.162842,1183.173950 
	C2004.135742,1192.444092 2003.066772,1201.814453 2001.432617,1210.950806 
	C1999.309814,1222.819092 1992.690308,1231.803345 1981.075439,1236.244995 
	C1959.754395,1244.398315 1937.787598,1246.893799 1915.305176,1242.520142 
	C1896.496216,1238.861206 1881.461792,1229.025146 1870.206543,1213.467285 
	C1869.041260,1211.856445 1867.739502,1210.342407 1866.458618,1208.819092 
	C1866.275391,1208.601196 1865.852051,1208.585205 1864.704346,1208.182739 
	C1862.203247,1209.942505 1859.267822,1211.993774 1856.346924,1214.065552 
	C1828.666748,1233.699463 1798.341187,1245.177490 1763.925781,1243.903931 
	C1745.376465,1243.217529 1727.443848,1239.181519 1710.820923,1231.119263 
	C1640.197998,1196.867065 1595.725220,1141.580933 1584.872925,1063.482544 
	C1573.750000,983.435608 1602.856934,917.712219 1665.171021,866.650269 
	C1679.403564,854.987488 1695.065552,845.455322 1711.986084,838.107483 
	C1753.963013,819.878662 1795.038940,821.986938 1834.962524,844.132141 
	C1845.125977,849.769775 1854.665039,856.533325 1865.099609,863.166382 
	C1866.069946,861.903198 1867.392334,860.560913 1868.276733,858.974487 
	C1886.250366,826.730896 1909.758911,820.064087 1943.124023,824.954956 
	C1950.365845,826.016479 1957.537842,827.651855 1964.805786,828.417908 
	C1981.869507,830.216431 1996.889893,824.845215 2008.061646,812.116882 
	C2048.268799,766.308594 2074.188477,714.069641 2078.185791,652.230530 
	C2080.162598,621.644043 2066.535400,600.488770 2039.889771,586.847290 
	C2014.324219,573.758850 1986.899048,567.116943 1958.556152,564.003418 
	C1907.399658,558.383972 1856.130859,558.312622 1804.817261,561.441589 
	C1767.903931,563.692505 1731.001709,566.159119 1694.071533,568.088745 
	C1649.908081,570.396362 1609.495483,558.854370 1573.649048,532.910645 
	C1542.876953,510.639465 1512.964111,487.177216 1482.103271,465.033600 
	C1462.921509,451.270203 1442.681641,438.981842 1422.259644,425.704437 
M1723.690674,1047.044678 
	C1723.910645,1048.359253 1724.037598,1049.697510 1724.364502,1050.984985 
	C1733.249023,1085.978027 1767.785156,1109.182251 1802.318726,1103.380615 
	C1837.737183,1097.430420 1864.586548,1064.387207 1861.660645,1030.349243 
	C1858.462158,993.139526 1826.622803,963.648865 1790.194824,964.154968 
	C1748.791504,964.730225 1717.132812,1003.234741 1723.690674,1047.044678 
M348.009277,1672.870972 
	C376.266418,1710.988892 423.993774,1711.679321 454.324890,1679.541504 
	C481.288910,1650.971558 480.364563,1607.181519 451.945709,1581.057861 
	C424.119995,1555.479614 377.204681,1557.862305 351.976990,1586.059570 
	C331.583679,1608.853271 326.989777,1642.720337 348.009277,1672.870972 
M337.785431,1015.083618 
	C332.747681,1033.575562 333.261841,1051.498901 344.734344,1067.634155 
	C361.157806,1090.732788 383.717377,1102.718872 411.921997,1097.446411 
	C441.357971,1091.943726 460.859680,1073.215942 469.947815,1044.398193 
	C471.225983,1040.345215 471.688385,1035.897583 471.754089,1031.620728 
	C472.370636,991.474304 435.281128,958.951416 393.967377,962.880493 
	C370.630920,965.099854 354.217621,976.804504 344.154175,997.652649 
	C341.709442,1002.717285 340.118195,1008.194031 337.785431,1015.083618 
z"/>
<path fill="#FDFDFE" opacity="1.000000" stroke="none" 
	d="
M2087.698242,1734.000000 
	C2087.188232,1753.638550 2087.149170,1772.307495 2085.951660,1790.901733 
	C2085.425293,1799.074097 2083.169678,1807.303833 2080.571533,1815.133423 
	C2076.983154,1825.947021 2068.956787,1832.931763 2058.039307,1836.037476 
	C2051.989990,1837.758423 2045.649780,1839.527222 2039.456909,1839.471191 
	C2021.162109,1839.305908 2002.835449,1838.760742 1984.599243,1837.353271 
	C1971.845581,1836.368896 1962.391968,1828.920898 1955.658203,1818.183838 
	C1953.038086,1814.006226 1950.756592,1809.616333 1947.960693,1804.688354 
	C1945.997925,1806.042236 1944.352661,1806.990112 1942.920654,1808.192261 
	C1904.035034,1840.833496 1860.087036,1848.972168 1811.828247,1834.739258 
	C1754.115112,1817.717773 1712.916382,1780.941650 1686.967651,1727.224731 
	C1655.581543,1662.251709 1653.600464,1596.694702 1688.259399,1532.362793 
	C1716.372437,1480.180908 1759.593506,1444.929199 1816.430176,1427.604004 
	C1858.261719,1414.852783 1896.766724,1423.156616 1931.434814,1449.599731 
	C1935.921631,1453.021973 1940.204102,1456.712036 1946.834595,1462.122437 
	C1947.859863,1460.065796 1948.633179,1457.830078 1949.948242,1455.979370 
	C1969.564697,1428.371216 2016.904663,1413.719849 2051.977539,1424.465332 
	C2071.133057,1430.334229 2082.538086,1442.903931 2084.025879,1463.300049 
	C2085.454102,1482.875732 2087.413818,1502.474487 2087.531982,1522.072876 
	C2087.955566,1592.379639 2087.698242,1662.690674 2087.698242,1734.000000 
M1908.554565,1572.210327 
	C1906.186523,1570.990112 1903.899048,1569.569580 1901.438110,1568.580566 
	C1875.877686,1558.311157 1851.495117,1560.939941 1829.626831,1577.466309 
	C1807.235229,1594.388306 1800.266968,1618.315918 1804.681763,1645.118164 
	C1810.006958,1677.447144 1840.588501,1700.660034 1874.905273,1699.991577 
	C1907.401245,1699.358643 1937.875732,1673.560669 1942.120117,1642.195190 
	C1946.142700,1612.468384 1934.220215,1589.679688 1908.554565,1572.210327 
z"/>
<path fill="#FDFDFE" opacity="1.000000" stroke="none" 
	d="
M989.848328,829.484375 
	C1015.256836,820.922791 1039.824097,822.940857 1064.258057,830.206177 
	C1077.510254,834.146606 1085.971069,843.406006 1089.297974,856.462219 
	C1091.742798,866.057800 1093.496704,876.128845 1093.526245,885.994141 
	C1093.824463,985.263611 1093.807495,1084.534546 1093.529663,1183.804199 
	C1093.502930,1193.355103 1091.861694,1203.074707 1089.658936,1212.406372 
	C1086.244873,1226.868774 1076.680420,1236.110474 1062.289917,1240.072266 
	C1044.319702,1245.019653 1026.001953,1244.143677 1007.696106,1243.009155 
	C1003.714417,1242.762329 999.717590,1242.296997 995.800354,1241.551025 
	C979.074402,1238.365479 966.242493,1229.896118 958.975342,1213.999268 
	C958.157104,1212.209473 957.047607,1210.550293 956.024780,1208.859863 
	C955.877014,1208.615601 955.455872,1208.536743 954.578064,1208.073730 
	C952.133179,1209.732178 949.406189,1211.534668 946.727600,1213.406250 
	C923.069641,1229.937012 897.170837,1240.582031 868.232544,1243.106079 
	C844.490173,1245.176758 821.338623,1241.604736 800.063538,1231.327515 
	C726.904907,1195.987183 681.313904,1138.291504 672.839050,1057.218994 
	C663.138611,964.421936 703.593445,894.806091 783.182251,847.502747 
	C802.521362,836.008606 823.365784,828.314880 845.962585,825.757751 
	C878.274109,822.101196 907.294800,830.497864 933.693298,848.968140 
	C936.420776,850.876587 939.077942,852.892090 941.695679,854.949646 
	C952.699280,863.598877 953.228638,863.618225 960.568054,852.197021 
	C965.941528,843.835022 973.087036,837.565796 981.824829,833.024536 
	C984.182678,831.799194 986.681152,830.844543 989.848328,829.484375 
M933.693665,1078.631836 
	C947.092407,1061.719604 951.613037,1042.684814 947.985413,1021.424377 
	C941.309143,982.296570 903.423279,956.861511 864.996399,966.070435 
	C817.900757,977.356995 788.024292,1037.646973 828.757019,1080.723633 
	C858.949768,1112.653809 904.988770,1111.676880 933.693665,1078.631836 
z"/>
<path fill="#FDFDFE" opacity="1.000000" stroke="none" 
	d="
M1011.020874,1839.139038 
	C1007.138184,1838.724609 1004.149292,1838.447021 1001.184082,1838.009033 
	C983.729248,1835.430542 970.734131,1826.929932 964.084717,1810.006836 
	C963.482788,1808.474854 962.651428,1807.030640 961.884583,1805.567871 
	C961.740479,1805.293213 961.396179,1805.123535 960.822021,1804.626099 
	C959.084167,1805.966064 957.221558,1807.290405 955.481812,1808.760254 
	C924.560181,1834.882080 888.506714,1843.532349 849.067017,1838.894775 
	C797.088806,1832.782837 757.162048,1805.539185 725.004211,1765.672485 
	C638.452576,1658.373535 673.880859,1498.974121 797.921387,1438.872437 
	C851.076172,1413.117310 901.857666,1418.688965 949.526001,1453.411377 
	C952.709778,1455.730469 955.849243,1458.110474 959.020386,1460.470337 
	C960.233704,1459.604004 961.251282,1459.206177 961.767517,1458.461060 
	C978.041443,1434.971680 1001.986938,1425.402100 1029.013428,1422.098877 
	C1041.924927,1420.520752 1054.938599,1420.854858 1067.514160,1425.427368 
	C1086.528687,1432.341187 1097.257568,1446.520264 1098.320312,1466.648438 
	C1098.443237,1468.976562 1098.509155,1471.310181 1098.515869,1473.641479 
	C1098.749390,1555.607422 1099.057861,1637.573364 1099.146362,1719.539429 
	C1099.173218,1744.522217 1098.591797,1769.505493 1098.284668,1794.488525 
	C1098.268311,1795.821045 1098.247681,1797.155029 1098.171021,1798.485107 
	C1096.897583,1820.526855 1084.696045,1835.131714 1062.761963,1837.612671 
	C1045.971436,1839.512207 1028.881958,1838.769287 1011.020874,1839.139038 
M818.527039,1614.040405 
	C818.271973,1615.346069 818.009338,1616.650146 817.762939,1617.957520 
	C812.314148,1646.865356 823.578064,1673.581055 847.582642,1688.687500 
	C872.327393,1704.260254 904.070984,1704.054321 926.592773,1687.569336 
	C949.924622,1670.491211 957.900024,1646.622437 953.454529,1618.951538 
	C949.060669,1591.601318 933.106140,1573.157349 906.035339,1565.469116 
	C869.176697,1555.001099 830.019470,1575.132202 818.527039,1614.040405 
z"/>
<path fill="#FDFDFE" opacity="1.000000" stroke="none" 
	d="
M1319.291016,1800.279785 
	C1323.004761,1785.142334 1318.400024,1772.731079 1311.109009,1760.585815 
	C1273.902100,1698.606079 1236.898682,1636.504272 1199.855225,1574.426514 
	C1187.393799,1553.543335 1174.842651,1532.709717 1162.720093,1511.630737 
	C1158.932983,1505.045776 1155.812622,1497.927612 1153.455200,1490.704834 
	C1149.690796,1479.171509 1151.684937,1468.196899 1159.619507,1458.814453 
	C1171.323364,1444.974731 1184.681763,1433.003540 1200.762573,1424.376221 
	C1213.321777,1417.638184 1226.757446,1414.354126 1241.048462,1414.293579 
	C1253.984863,1414.238770 1264.409424,1419.169556 1272.060059,1429.519043 
	C1276.010986,1434.863647 1279.593262,1440.509888 1282.996338,1446.225708 
	C1317.762329,1504.618774 1352.452637,1563.056763 1387.185791,1621.469360 
	C1388.859009,1624.283325 1390.734131,1626.977173 1393.364868,1631.038696 
	C1395.417358,1626.927856 1396.955811,1624.098389 1398.273804,1621.169556 
	C1423.422241,1565.279785 1448.479736,1509.348633 1473.750244,1453.514038 
	C1477.166870,1445.965210 1481.149170,1438.572021 1485.719604,1431.669556 
	C1492.192749,1421.892822 1501.876709,1416.431396 1513.571045,1416.495850 
	C1547.044800,1416.679932 1576.257446,1427.116699 1598.908081,1453.060913 
	C1609.081665,1464.713745 1611.744385,1477.599731 1607.191528,1492.077515 
	C1605.398438,1497.779175 1603.104248,1503.353394 1600.656128,1508.814453 
	C1529.260986,1668.079346 1457.847656,1827.336060 1386.298950,1986.531982 
	C1382.357788,1995.301514 1377.913818,2004.005493 1372.504150,2011.920044 
	C1362.275635,2026.884644 1347.654053,2032.449341 1329.813354,2028.885010 
	C1308.617676,2024.650391 1289.110229,2016.205811 1271.437988,2003.885742 
	C1249.761597,1988.774414 1244.813843,1973.130005 1254.761719,1948.522217 
	C1267.117310,1917.957642 1280.229248,1887.693359 1293.366699,1857.452271 
	C1301.591309,1838.520142 1310.464111,1819.869507 1319.291016,1800.279785 
z"/>
<path fill="#FDFDFE" opacity="1.000000" stroke="none" 
	d="
M1463.226807,945.765869 
	C1453.947388,951.345520 1444.779419,951.399170 1435.560303,948.472839 
	C1429.228516,946.463135 1423.084717,943.831543 1416.928589,941.303284 
	C1388.591553,929.665283 1359.323242,925.124512 1328.872192,929.717346 
	C1325.612671,930.208984 1322.250854,930.916687 1319.281494,932.277283 
	C1308.183105,937.361938 1306.078003,950.417847 1315.232178,958.505676 
	C1322.824341,965.213623 1331.813843,969.864197 1341.724243,971.939148 
	C1352.786377,974.255249 1363.994751,975.976929 1375.205200,977.460205 
	C1400.861938,980.854797 1425.214722,988.742065 1448.922729,998.707275 
	C1491.060547,1016.419067 1513.560059,1048.735596 1517.592529,1093.833252 
	C1519.494263,1115.101440 1519.332764,1136.442017 1513.915771,1157.410767 
	C1504.779785,1192.775879 1483.824341,1218.741211 1449.666138,1231.362061 
	C1364.127563,1262.967529 1280.033569,1261.845093 1198.990723,1216.042969 
	C1192.924927,1212.614990 1186.969116,1208.787598 1181.604614,1204.366577 
	C1170.625488,1195.318481 1166.039185,1183.553711 1170.030273,1169.574951 
	C1176.345581,1147.454956 1187.286011,1127.682007 1202.960205,1110.859009 
	C1212.030518,1101.124023 1223.946533,1097.355957 1236.769653,1101.519531 
	C1248.730835,1105.403198 1260.445801,1110.357910 1271.735718,1115.923218 
	C1288.493408,1124.183838 1305.052856,1132.667969 1323.419189,1136.977783 
	C1339.668335,1140.790405 1355.815430,1140.280518 1371.940552,1136.612305 
	C1375.138428,1135.884644 1378.470093,1134.823608 1381.185059,1133.061279 
	C1390.289062,1127.151123 1390.084351,1114.223755 1380.477783,1109.245972 
	C1375.280640,1106.552856 1369.212036,1105.230713 1363.377930,1104.130127 
	C1334.553345,1098.692993 1305.779907,1093.119629 1278.332886,1082.341064 
	C1259.617065,1074.991211 1241.918579,1065.805176 1226.436768,1052.802246 
	C1199.860718,1030.481445 1186.980225,1001.069031 1184.533569,967.227661 
	C1183.316162,950.388611 1183.880615,933.192017 1185.798462,916.403809 
	C1189.531006,883.728882 1207.229614,859.603577 1235.264404,842.931763 
	C1255.922485,830.646667 1278.566895,823.623596 1302.197754,820.807495 
	C1339.376587,816.376892 1376.634521,815.503235 1413.523438,823.984253 
	C1434.709595,828.855164 1455.073853,836.145996 1474.718994,845.393433 
	C1479.203979,847.504761 1483.548706,850.165466 1487.445435,853.225830 
	C1497.478760,861.105530 1502.078247,871.812378 1499.272461,884.190063 
	C1493.851562,908.104553 1482.746826,929.064270 1463.226807,945.765869 
z"/>
<path fill="#FDFDFE" opacity="1.000000" stroke="none" 
	d="
M1007.048035,750.994995 
	C987.075623,746.080322 968.615234,739.398682 951.207581,730.109985 
	C945.398438,727.010254 939.673462,723.244080 934.959412,718.695068 
	C920.203003,704.455261 917.402405,683.250977 927.236267,665.433289 
	C936.201172,649.190125 956.044556,640.631592 975.312317,645.113770 
	C980.778198,646.385254 986.090759,648.544067 991.275391,650.759766 
	C1023.903564,664.703491 1057.730591,672.092163 1093.386597,670.353088 
	C1137.372192,668.207703 1175.621704,652.231689 1208.273560,622.887329 
	C1237.151978,596.934265 1256.545898,564.601196 1270.606567,528.773987 
	C1273.282104,521.956909 1275.847046,515.064453 1279.065186,508.502045 
	C1281.837402,502.848938 1285.030396,497.289673 1288.795776,492.256348 
	C1302.840576,473.481873 1320.595703,469.498718 1341.638672,479.847321 
	C1355.910278,486.865906 1363.390747,498.617065 1363.497803,514.114319 
	C1363.563354,523.628540 1362.410156,533.584839 1359.526978,542.615540 
	C1340.174316,603.230408 1308.515869,656.059937 1258.787964,696.851990 
	C1218.591309,729.825562 1172.067993,748.347778 1120.898560,755.836182 
	C1082.926270,761.393250 1045.210449,760.570923 1007.048035,750.994995 
z"/>
<path fill="#FBFBFE" opacity="1.000000" stroke="none" 
	d="
M1052.635132,516.752686 
	C1054.479126,544.003845 1033.506104,563.644104 1009.834656,563.928772 
	C986.549561,564.208801 965.514771,545.244080 964.047791,522.531067 
	C962.531921,499.060486 981.252136,476.967682 1005.580383,474.734070 
	C1028.835449,472.599030 1049.288574,489.082184 1052.260498,512.971741 
	C1052.383545,513.960876 1052.456421,514.956238 1052.635132,516.752686 
z"/>
<path fill="#FBFBFE" opacity="1.000000" stroke="none" 
	d="
M1192.536499,413.277832 
	C1206.876709,425.829193 1211.755127,441.045105 1207.945557,458.738464 
	C1204.330688,475.528046 1193.876953,486.537292 1177.097168,490.560211 
	C1158.811768,494.944153 1142.392578,490.832733 1130.125610,476.170441 
	C1118.942017,462.803101 1116.692993,447.342102 1124.274170,431.317871 
	C1137.018921,404.379669 1168.415039,394.938690 1192.536499,413.277832 
z"/>
<path fill="#7B87FE" opacity="1.000000" stroke="none" 
	d="
M1723.559082,1046.202271 
	C1717.132812,1003.234741 1748.791504,964.730225 1790.194824,964.154968 
	C1826.622803,963.648865 1858.462158,993.139526 1861.660645,1030.349243 
	C1864.586548,1064.387207 1837.737183,1097.430420 1802.318726,1103.380615 
	C1767.785156,1109.182251 1733.249023,1085.978027 1724.364502,1050.984985 
	C1724.037598,1049.697510 1723.910645,1048.359253 1723.559082,1046.202271 
z"/>
<path fill="#7B87FE" opacity="1.000000" stroke="none" 
	d="
M347.587769,1672.290283 
	C326.989777,1642.720337 331.583679,1608.853271 351.976990,1586.059570 
	C377.204681,1557.862305 424.119995,1555.479614 451.945709,1581.057861 
	C480.364563,1607.181519 481.288910,1650.971558 454.324890,1679.541504 
	C423.993774,1711.679321 376.266418,1710.988892 347.587769,1672.290283 
z"/>
<path fill="#7B87FE" opacity="1.000000" stroke="none" 
	d="
M337.959991,1014.282471 
	C340.118195,1008.194031 341.709442,1002.717285 344.154175,997.652649 
	C354.217621,976.804504 370.630920,965.099854 393.967377,962.880493 
	C435.281128,958.951416 472.370636,991.474304 471.754089,1031.620728 
	C471.688385,1035.897583 471.225983,1040.345215 469.947815,1044.398193 
	C460.859680,1073.215942 441.357971,1091.943726 411.921997,1097.446411 
	C383.717377,1102.718872 361.157806,1090.732788 344.734344,1067.634155 
	C333.261841,1051.498901 332.747681,1033.575562 337.959991,1014.282471 
z"/>
<path fill="#7B87FE" opacity="1.000000" stroke="none" 
	d="
M1909.187378,1572.584961 
	C1934.220215,1589.679688 1946.142700,1612.468384 1942.120117,1642.195190 
	C1937.875732,1673.560669 1907.401245,1699.358643 1874.905273,1699.991577 
	C1840.588501,1700.660034 1810.006958,1677.447144 1804.681763,1645.118164 
	C1800.266968,1618.315918 1807.235229,1594.388306 1829.626831,1577.466309 
	C1851.495117,1560.939941 1875.877686,1558.311157 1901.438110,1568.580566 
	C1903.899048,1569.569580 1906.186523,1570.990112 1909.187378,1572.584961 
z"/>
<path fill="#7B87FE" opacity="1.000000" stroke="none" 
	d="
M933.232544,1079.175049 
	C904.988770,1111.676880 858.949768,1112.653809 828.757019,1080.723633 
	C788.024292,1037.646973 817.900757,977.356995 864.996399,966.070435 
	C903.423279,956.861511 941.309143,982.296570 947.985413,1021.424377 
	C951.613037,1042.684814 947.092407,1061.719604 933.232544,1079.175049 
z"/>
<path fill="#7B87FE" opacity="1.000000" stroke="none" 
	d="
M818.772217,1613.261230 
	C830.019470,1575.132202 869.176697,1555.001099 906.035339,1565.469116 
	C933.106140,1573.157349 949.060669,1591.601318 953.454529,1618.951538 
	C957.900024,1646.622437 949.924622,1670.491211 926.592773,1687.569336 
	C904.070984,1704.054321 872.327393,1704.260254 847.582642,1688.687500 
	C823.578064,1673.581055 812.314148,1646.865356 817.762939,1617.957520 
	C818.009338,1616.650146 818.271973,1615.346069 818.772217,1613.261230 
z"/>
</svg>